<mxfile host="app.diagrams.net" modified="2023-03-29T01:23:07.606Z" agent="Mozilla/5.0 (Windows NT 10.0; Win64; x64) AppleWebKit/537.36 (KHTML, like Gecko) Chrome/111.0.0.0 Safari/537.36" etag="B3hkj1V0cksoYUtRsFoP" version="21.1.1" type="github">
  <diagram name="PÃ¡gina-1" id="PbDBRzjeMoPzVNdfy6YZ">
    <mxGraphModel dx="922" dy="1013" grid="0" gridSize="10" guides="1" tooltips="1" connect="1" arrows="1" fold="1" page="0" pageScale="1" pageWidth="827" pageHeight="1169" math="0" shadow="0">
      <root>
        <mxCell id="0" />
        <mxCell id="1" parent="0" />
        <mxCell id="j_s6rz9eN5aaMq6emOFC-1" value="Vendedor&lt;br&gt;Secretaria" style="shape=umlActor;verticalLabelPosition=bottom;verticalAlign=top;html=1;outlineConnect=0;fontSize=16;" vertex="1" parent="1">
          <mxGeometry x="-42" y="171" width="30" height="60" as="geometry" />
        </mxCell>
        <mxCell id="j_s6rz9eN5aaMq6emOFC-2" value="Cliente" style="shape=umlActor;verticalLabelPosition=bottom;verticalAlign=top;html=1;outlineConnect=0;fontSize=16;" vertex="1" parent="1">
          <mxGeometry x="-48" y="-59" width="30" height="60" as="geometry" />
        </mxCell>
        <mxCell id="j_s6rz9eN5aaMq6emOFC-3" value="Realizar pedido" style="ellipse;whiteSpace=wrap;html=1;fontSize=16;" vertex="1" parent="1">
          <mxGeometry x="60" y="-69" width="120" height="80" as="geometry" />
        </mxCell>
        <mxCell id="j_s6rz9eN5aaMq6emOFC-4" value="Asignar pedido" style="ellipse;whiteSpace=wrap;html=1;fontSize=16;" vertex="1" parent="1">
          <mxGeometry x="66" y="55" width="120" height="80" as="geometry" />
        </mxCell>
        <mxCell id="j_s6rz9eN5aaMq6emOFC-5" value="Modificar pedido" style="ellipse;whiteSpace=wrap;html=1;fontSize=16;" vertex="1" parent="1">
          <mxGeometry x="64" y="161" width="120" height="80" as="geometry" />
        </mxCell>
        <mxCell id="j_s6rz9eN5aaMq6emOFC-6" value="Rechazar pedido" style="ellipse;whiteSpace=wrap;html=1;fontSize=16;" vertex="1" parent="1">
          <mxGeometry x="66" y="264" width="120" height="80" as="geometry" />
        </mxCell>
        <mxCell id="j_s6rz9eN5aaMq6emOFC-8" value="" style="endArrow=none;dashed=1;html=1;rounded=0;fontSize=12;startSize=8;endSize=8;curved=1;entryX=0;entryY=0.5;entryDx=0;entryDy=0;" edge="1" parent="1" source="j_s6rz9eN5aaMq6emOFC-1" target="j_s6rz9eN5aaMq6emOFC-4">
          <mxGeometry width="50" height="50" relative="1" as="geometry">
            <mxPoint x="175" y="216" as="sourcePoint" />
            <mxPoint x="225" y="166" as="targetPoint" />
          </mxGeometry>
        </mxCell>
        <mxCell id="j_s6rz9eN5aaMq6emOFC-9" value="" style="endArrow=none;dashed=1;html=1;rounded=0;fontSize=12;startSize=8;endSize=8;curved=1;entryX=0;entryY=0.5;entryDx=0;entryDy=0;" edge="1" parent="1" target="j_s6rz9eN5aaMq6emOFC-5">
          <mxGeometry width="50" height="50" relative="1" as="geometry">
            <mxPoint x="-16" y="201" as="sourcePoint" />
            <mxPoint x="76" y="105" as="targetPoint" />
          </mxGeometry>
        </mxCell>
        <mxCell id="j_s6rz9eN5aaMq6emOFC-10" value="" style="endArrow=none;dashed=1;html=1;rounded=0;fontSize=12;startSize=8;endSize=8;curved=1;entryX=0;entryY=0.5;entryDx=0;entryDy=0;" edge="1" parent="1" target="j_s6rz9eN5aaMq6emOFC-6">
          <mxGeometry width="50" height="50" relative="1" as="geometry">
            <mxPoint x="-16" y="201" as="sourcePoint" />
            <mxPoint x="86" y="115" as="targetPoint" />
          </mxGeometry>
        </mxCell>
        <mxCell id="j_s6rz9eN5aaMq6emOFC-11" value="" style="endArrow=none;dashed=1;html=1;rounded=0;fontSize=12;startSize=8;endSize=8;curved=1;exitX=0.5;exitY=0.5;exitDx=0;exitDy=0;exitPerimeter=0;entryX=0;entryY=0.5;entryDx=0;entryDy=0;" edge="1" parent="1" source="j_s6rz9eN5aaMq6emOFC-2" target="j_s6rz9eN5aaMq6emOFC-3">
          <mxGeometry width="50" height="50" relative="1" as="geometry">
            <mxPoint x="175" y="216" as="sourcePoint" />
            <mxPoint x="225" y="166" as="targetPoint" />
          </mxGeometry>
        </mxCell>
        <mxCell id="j_s6rz9eN5aaMq6emOFC-12" value="Ingresar datos del pedido" style="ellipse;whiteSpace=wrap;html=1;fontSize=16;" vertex="1" parent="1">
          <mxGeometry x="304" y="-69" width="120" height="80" as="geometry" />
        </mxCell>
        <mxCell id="j_s6rz9eN5aaMq6emOFC-13" value="" style="endArrow=classic;html=1;rounded=0;fontSize=12;startSize=8;endSize=8;curved=1;exitX=1;exitY=0.5;exitDx=0;exitDy=0;entryX=0;entryY=0.5;entryDx=0;entryDy=0;" edge="1" parent="1" source="j_s6rz9eN5aaMq6emOFC-3" target="j_s6rz9eN5aaMq6emOFC-12">
          <mxGeometry width="50" height="50" relative="1" as="geometry">
            <mxPoint x="175" y="207" as="sourcePoint" />
            <mxPoint x="225" y="157" as="targetPoint" />
          </mxGeometry>
        </mxCell>
        <mxCell id="j_s6rz9eN5aaMq6emOFC-14" value="&amp;lt;&amp;lt;include&amp;gt;&amp;gt;" style="text;html=1;align=center;verticalAlign=middle;resizable=0;points=[];autosize=1;strokeColor=none;fillColor=none;fontSize=16;" vertex="1" parent="1">
          <mxGeometry x="187" y="-71" width="106" height="31" as="geometry" />
        </mxCell>
        <mxCell id="j_s6rz9eN5aaMq6emOFC-15" value="Verificar/listar pedido" style="ellipse;whiteSpace=wrap;html=1;fontSize=16;" vertex="1" parent="1">
          <mxGeometry x="326" y="154" width="120" height="80" as="geometry" />
        </mxCell>
        <mxCell id="j_s6rz9eN5aaMq6emOFC-16" value="" style="endArrow=classic;html=1;rounded=0;fontSize=12;startSize=8;endSize=8;curved=1;exitX=1;exitY=0.5;exitDx=0;exitDy=0;entryX=0;entryY=0.5;entryDx=0;entryDy=0;" edge="1" parent="1" source="j_s6rz9eN5aaMq6emOFC-4" target="j_s6rz9eN5aaMq6emOFC-15">
          <mxGeometry width="50" height="50" relative="1" as="geometry">
            <mxPoint x="175" y="198" as="sourcePoint" />
            <mxPoint x="225" y="148" as="targetPoint" />
          </mxGeometry>
        </mxCell>
        <mxCell id="j_s6rz9eN5aaMq6emOFC-19" value="" style="endArrow=classic;html=1;rounded=0;fontSize=12;startSize=8;endSize=8;curved=1;exitX=1;exitY=0.5;exitDx=0;exitDy=0;" edge="1" parent="1" source="j_s6rz9eN5aaMq6emOFC-6">
          <mxGeometry width="50" height="50" relative="1" as="geometry">
            <mxPoint x="196" y="105" as="sourcePoint" />
            <mxPoint x="327" y="207" as="targetPoint" />
          </mxGeometry>
        </mxCell>
        <mxCell id="j_s6rz9eN5aaMq6emOFC-20" value="" style="endArrow=classic;html=1;rounded=0;fontSize=12;startSize=8;endSize=8;curved=1;exitX=1;exitY=0.5;exitDx=0;exitDy=0;" edge="1" parent="1" source="j_s6rz9eN5aaMq6emOFC-5">
          <mxGeometry width="50" height="50" relative="1" as="geometry">
            <mxPoint x="206" y="115" as="sourcePoint" />
            <mxPoint x="331" y="201" as="targetPoint" />
          </mxGeometry>
        </mxCell>
        <mxCell id="j_s6rz9eN5aaMq6emOFC-21" value="&amp;lt;&amp;lt;include&amp;gt;&amp;gt;" style="text;html=1;align=center;verticalAlign=middle;resizable=0;points=[];autosize=1;strokeColor=none;fillColor=none;fontSize=16;rotation=30;" vertex="1" parent="1">
          <mxGeometry x="220" y="120" width="106" height="31" as="geometry" />
        </mxCell>
        <mxCell id="j_s6rz9eN5aaMq6emOFC-22" value="&amp;lt;&amp;lt;include&amp;gt;&amp;gt;" style="text;html=1;align=center;verticalAlign=middle;resizable=0;points=[];autosize=1;strokeColor=none;fillColor=none;fontSize=16;rotation=-45;" vertex="1" parent="1">
          <mxGeometry x="223" y="255" width="106" height="31" as="geometry" />
        </mxCell>
        <mxCell id="j_s6rz9eN5aaMq6emOFC-24" value="&amp;lt;&amp;lt;include&amp;gt;&amp;gt;" style="text;html=1;align=center;verticalAlign=middle;resizable=0;points=[];autosize=1;strokeColor=none;fillColor=none;fontSize=16;rotation=0;" vertex="1" parent="1">
          <mxGeometry x="194" y="203" width="106" height="31" as="geometry" />
        </mxCell>
        <mxCell id="j_s6rz9eN5aaMq6emOFC-25" value="Enviar pedido" style="ellipse;whiteSpace=wrap;html=1;fontSize=16;" vertex="1" parent="1">
          <mxGeometry x="331" y="55" width="120" height="80" as="geometry" />
        </mxCell>
        <mxCell id="j_s6rz9eN5aaMq6emOFC-27" value="" style="endArrow=none;dashed=1;html=1;dashPattern=1 3;strokeWidth=2;rounded=0;fontSize=12;startSize=8;endSize=8;curved=1;entryX=0;entryY=0.5;entryDx=0;entryDy=0;" edge="1" parent="1" target="j_s6rz9eN5aaMq6emOFC-25">
          <mxGeometry width="50" height="50" relative="1" as="geometry">
            <mxPoint x="188" y="91" as="sourcePoint" />
            <mxPoint x="225" y="148" as="targetPoint" />
          </mxGeometry>
        </mxCell>
        <mxCell id="j_s6rz9eN5aaMq6emOFC-28" value="&amp;lt;&amp;lt;include&amp;gt;&amp;gt;" style="text;html=1;align=center;verticalAlign=middle;resizable=0;points=[];autosize=1;strokeColor=none;fillColor=none;fontSize=16;" vertex="1" parent="1">
          <mxGeometry x="206" y="62" width="106" height="31" as="geometry" />
        </mxCell>
        <mxCell id="j_s6rz9eN5aaMq6emOFC-29" value="Diagrama de casos de uso - Gestionar Pedidos" style="text;html=1;align=center;verticalAlign=middle;resizable=0;points=[];autosize=1;strokeColor=none;fillColor=none;fontSize=16;" vertex="1" parent="1">
          <mxGeometry x="11" y="-128" width="354" height="31" as="geometry" />
        </mxCell>
      </root>
    </mxGraphModel>
  </diagram>
</mxfile>
